<?xml version="1.0" encoding="UTF-8"?>
<svg version="1.1" xmlns="http://www.w3.org/2000/svg" width="936" height="209">
<path d="M0 0 C308.88 0 617.76 0 936 0 C936 68.97 936 137.94 936 209 C627.12 209 318.24 209 0 209 C0 140.03 0 71.06 0 0 Z " fill="#F9F9F9" transform="translate(0,0)"/>
<path d="M0 0 C8.58 0 17.16 0 26 0 C26 47.52 26 95.04 26 144 C17.42 144 8.84 144 0 144 C-0.495 138.06 -0.495 138.06 -1 132 C-1.680625 132.886875 -2.36125 133.77375 -3.0625 134.6875 C-8.26720463 140.8863617 -15.11065957 145.25439338 -23.26586914 146.28686523 C-25.6438102 146.4012206 -27.99474203 146.41648546 -30.375 146.375 C-31.21208496 146.36557373 -32.04916992 146.35614746 -32.91162109 146.34643555 C-39.00729595 146.19763041 -44.39971158 145.55216096 -50 143 C-51.10988281 142.50693359 -51.10988281 142.50693359 -52.2421875 142.00390625 C-65.21913028 135.51543486 -73.61619349 124.99568738 -78.23828125 111.48046875 C-80.19855998 105.096997 -80.2565821 99.16541426 -80.3125 92.5 C-80.34150391 91.37851563 -80.37050781 90.25703125 -80.40039062 89.1015625 C-80.51025987 74.46359908 -75.18476503 62.33105287 -65.1875 51.6875 C-53.7696917 40.95168025 -41.70949687 38.27860269 -26.5078125 38.72265625 C-16.76732981 39.20626901 -10.10617749 42.26138342 -3 49 C-2.34 49.99 -1.68 50.98 -1 52 C-0.67 34.84 -0.34 17.68 0 0 Z " fill="#1B2831" transform="translate(650,31)"/>
<path d="M0 0 C4.55273627 -0.27382288 9.10060921 -0.47230307 13.65966797 -0.60424805 C15.20641581 -0.65927006 16.75259903 -0.73412755 18.29736328 -0.82983398 C31.07841846 -1.60131795 31.07841846 -1.60131795 35.68066406 2.23388672 C37.75612193 5.06127276 39.40395904 7.88039352 41 11 C41.83551404 12.31075076 42.68263778 13.61425724 43.546875 14.90625 C44.28548938 16.1015574 45.01984357 17.29950736 45.75 18.5 C46.58519249 19.85722957 47.42116798 21.21397753 48.2578125 22.5703125 C48.69383789 23.27833008 49.12986328 23.98634766 49.57910156 24.71582031 C51.13474324 27.21660786 52.71685734 29.69921945 54.3046875 32.1796875 C54.85672852 33.04400391 55.40876953 33.90832031 55.97753906 34.79882812 C57.062187 36.49491661 58.14999906 38.18898646 59.24121094 39.88085938 C59.73137695 40.64978516 60.22154297 41.41871094 60.7265625 42.2109375 C61.38519287 43.23646729 61.38519287 43.23646729 62.05712891 44.28271484 C63 46 63 46 63 48 C63.66 48 64.32 48 65 48 C65.23332031 47.32710937 65.46664062 46.65421875 65.70703125 45.9609375 C67.32573458 42.25405798 69.46338189 38.98651018 71.6875 35.625 C72.15792725 34.90618652 72.62835449 34.18737305 73.11303711 33.44677734 C74.15731452 31.85142341 75.20339388 30.25724799 76.25097656 28.6640625 C78.17150615 25.73876674 80.08261517 22.80745956 81.9921875 19.875 C84.62986732 15.82444618 87.26844361 11.77448763 89.91015625 7.7265625 C90.45808838 6.88689941 91.00602051 6.04723633 91.57055664 5.18212891 C92.70560107 3.44941719 93.85100502 1.72349247 95 0 C97.48340903 -0.26727014 99.71472068 -0.34866334 102.1953125 -0.29296875 C103.25647781 -0.28660149 103.25647781 -0.28660149 104.33908081 -0.28010559 C106.60143905 -0.26329547 108.86291048 -0.22564128 111.125 -0.1875 C112.65753923 -0.17245607 114.1900924 -0.15876716 115.72265625 -0.14648438 C119.48211318 -0.11338462 123.24090618 -0.06158825 127 0 C123.60953154 6.4240455 119.79204743 12.35105127 115.5625 18.25 C109.95657581 26.16310911 104.48370949 34.14999789 99.14672852 42.24707031 C96.28287883 46.59109824 93.3853527 50.89876324 90.3828125 55.1484375 C89.81320801 55.96618652 89.24360352 56.78393555 88.65673828 57.62646484 C87.57864746 59.17099755 86.48650268 60.70584621 85.37841797 62.22900391 C82.52959934 66.10152697 82.52959934 66.10152697 82.4609375 70.68359375 C84.1303444 73.19617824 85.80331483 75.65656919 87.625 78.0625 C91.18750521 82.85941007 94.53499541 87.75391263 97.828125 92.73828125 C100.20527439 96.30828078 102.62775478 99.84417675 105.0625 103.375 C105.98959251 104.72264994 106.91667543 106.07030647 107.84375 107.41796875 C109.53495985 109.87516488 111.22868222 112.33055713 112.92578125 114.78369141 C114.97585182 117.74855207 117.01949451 120.71776786 119.0625 123.6875 C119.71806885 124.63222168 120.3736377 125.57694336 121.04907227 126.55029297 C121.66322998 127.44506348 122.2773877 128.33983398 122.91015625 129.26171875 C123.45808838 130.05537842 124.00602051 130.84903809 124.57055664 131.66674805 C126.0266895 134.04356475 127.04322784 136.38675271 128 139 C100.63407697 141.35767208 100.63407697 141.35767208 93.54980469 137.75341797 C89.89952706 134.52023041 87.86698571 130.47119262 85.93310547 126.05175781 C84.4885495 122.8753977 82.57290117 120.14617644 80.625 117.25 C79.90750765 116.11886319 79.19275726 114.98598342 78.48046875 113.8515625 C73.53899249 106.09263265 68.22483951 98.56952115 63 91 C57.51717895 97.57938526 52.76008074 104.44886911 48.75534058 112.01469421 C35.80652341 136.32311068 35.80652341 136.32311068 28.02111816 139.91229248 C18.68238338 142.64325566 8.32562711 140.95613829 -1 139 C0.35904543 135.25812562 2.06130257 132.19723938 4.31640625 128.921875 C5.32658813 127.44630127 5.32658813 127.44630127 6.35717773 125.94091797 C7.08493408 124.88791504 7.81269043 123.83491211 8.5625 122.75 C9.32351386 121.64114159 10.0840032 120.53192303 10.84399414 119.42236328 C12.42810942 117.11055223 14.01448378 114.80031711 15.60253906 112.49121094 C19.4002193 106.96566889 23.16821425 101.41993825 26.9375 95.875 C27.64326172 94.83770752 28.34902344 93.80041504 29.07617188 92.73168945 C34.43250734 84.85305511 39.74226265 76.94473826 45 69 C41.51731189 62.43069807 37.60870247 56.29475383 33.375 50.1875 C32.05034623 48.26071566 30.7261511 46.33361597 29.40234375 44.40625 C28.69706543 43.38144531 27.99178711 42.35664062 27.26513672 41.30078125 C23.54915585 35.89304958 19.86956112 30.4605034 16.18707275 25.02993774 C14.9663536 23.23004331 13.74474557 21.43075514 12.52294922 19.6315918 C10.34500628 16.42351074 8.17186851 13.21219718 6 10 C5.06438232 8.62062256 5.06438232 8.62062256 4.10986328 7.21337891 C3.55927246 6.39659668 3.00868164 5.57981445 2.44140625 4.73828125 C1.72706421 3.68120972 1.72706421 3.68120972 0.99829102 2.6027832 C0 1 0 1 0 0 Z " fill="#1B2831" transform="translate(785,36)"/>
<path d="M0 0 C0.83917969 -0.00950684 1.67835938 -0.01901367 2.54296875 -0.02880859 C14.72200847 0.03561814 26.16072099 3.47322099 34.9375 12.25 C43.77884602 24.12055371 43.08542148 37.27092054 43.03515625 51.44140625 C43.03328789 52.99795994 43.03186597 54.55451423 43.03086853 56.11106873 C43.02707622 60.17983667 43.01727453 64.24856811 43.00616455 68.31732178 C42.99587925 72.48042304 42.99135575 76.64353028 42.98632812 80.80664062 C42.97564886 88.95444558 42.95807921 97.10221403 42.9375 105.25 C34.6875 105.25 26.4375 105.25 17.9375 105.25 C17.6075 101.95 17.2775 98.65 16.9375 95.25 C15.82375 96.3225 14.71 97.395 13.5625 98.5 C3.66616381 107.19891473 -8.28330631 107.94349333 -20.88330078 107.41601562 C-30.66204966 106.67105156 -37.71249419 101.43801773 -44.0625 94.25 C-49.42904249 86.17179187 -49.94273719 77.7176674 -49.0625 68.25 C-46.94542885 60.91939384 -42.46187822 55.34641727 -36.0625 51.25 C-29.68125246 47.85204328 -23.41683468 46.25447273 -16.3125 45.125 C-15.32693115 44.96032227 -14.3413623 44.79564453 -13.32592773 44.62597656 C-3.2847614 43.0099176 6.80253189 42.04489946 16.9375 41.25 C16.11722468 33.70892372 16.11722468 33.70892372 12.5625 27.1875 C5.8162886 22.20815349 -0.95376077 22.54753168 -9.0625 23.25 C-12.21384837 24.18579366 -13.4772603 25.07604843 -16.0625 27.25 C-16.45695312 28.11496094 -16.85140625 28.97992188 -17.2578125 29.87109375 C-19.0625 32.25 -19.0625 32.25 -22.5390625 32.7734375 C-23.92257332 32.75071317 -25.30582887 32.69985638 -26.6875 32.625 C-27.40228516 32.60501953 -28.11707031 32.58503906 -28.85351562 32.56445312 C-33.95723778 32.39324939 -39.00629765 31.97231462 -44.0625 31.25 C-44.97080261 24.34690017 -41.58148981 18.66001546 -37.59375 13.26171875 C-27.64424996 2.26361944 -14.00097518 0.13049154 0 0 Z " fill="#1B2730" transform="translate(514.0625,69.75)"/>
<path d="M0 0 C0.83265381 0.00563965 1.66530762 0.0112793 2.52319336 0.01708984 C15.71226129 0.27522294 26.17478816 3.98688088 36 12.9375 C48.63164589 26.30918171 49.75 43.94407596 49.75 61.3125 C25.33 61.3125 0.91 61.3125 -24.25 61.3125 C-21.70856849 73.46579885 -21.70856849 73.46579885 -14.23046875 81.84375 C-6.9842288 86.16986341 0.51762942 86.40246941 8.75 85.3125 C16.50493457 82.99926722 19.28565638 79.68756756 24.75 73.3125 C34.65 76.7775 34.65 76.7775 44.75 80.3125 C41.52908368 89.97524897 35.47137314 96.9996382 26.75 102.3125 C12.59474646 108.70958573 -4.72609258 109.95329708 -19.42578125 104.5703125 C-33.47133309 98.31489384 -42.32865478 88.90034831 -48.3515625 74.71875 C-52.70179765 60.8955729 -52.59452167 41.48814383 -46.25 28.3125 C-39.25459442 14.99466456 -29.71914627 6.439408 -15.35644531 1.68579102 C-10.23187207 0.25444908 -5.30247565 -0.0377554 0 0 Z " fill="#1B2730" transform="translate(740.25,69.6875)"/>
<path d="M0 0 C0.15936206 19.02782979 -0.28273475 37.98865566 -1 57 C-4.11509561 55.8431636 -6.72063684 54.67464976 -9.33203125 52.6171875 C-9.90244141 52.17246094 -10.47285156 51.72773437 -11.06054688 51.26953125 C-11.63869141 50.80933594 -12.21683594 50.34914062 -12.8125 49.875 C-13.7087207 49.17310547 -13.7087207 49.17310547 -14.62304688 48.45703125 C-16.08616792 47.30994435 -17.54366297 46.15568766 -19 45 C-23.38711608 49.10223841 -26.80872788 53.63476214 -30.3125 58.5 C-35.45748519 65.56680464 -40.68251408 72.5620758 -46 79.5 C-51.06699952 86.11911362 -56.07381312 92.77543101 -61 99.5 C-66.19585319 106.58292682 -71.44666881 113.6221273 -76.75 120.625 C-77.44222656 121.54474609 -78.13445312 122.46449219 -78.84765625 123.41210938 C-79.49089844 124.25837891 -80.13414062 125.10464844 -80.796875 125.9765625 C-81.36760742 126.73018066 -81.93833984 127.48379883 -82.52636719 128.26025391 C-84.26626574 130.31434885 -85.33936818 130.89746579 -87.98828125 131.30859375 C-94.14586004 131.65010652 -94.14586004 131.65010652 -96.66796875 129.73046875 C-100.30304799 125.34918556 -101.22330633 122.58265837 -101 117 C-100.69026417 115.6609882 -100.36162029 114.32594105 -100 113 C-109.96004083 103.86096037 -120.42865735 95.41579773 -131 87 C-131.22558594 87.53496094 -131.45117188 88.06992188 -131.68359375 88.62109375 C-133.42648094 91.77070295 -135.71214386 94.35991065 -138.0625 97.0625 C-139.06455869 98.22981968 -140.06585029 99.39779826 -141.06640625 100.56640625 C-141.56414551 101.14664551 -142.06188477 101.72688477 -142.57470703 102.32470703 C-144.58525686 104.6879124 -146.54414643 107.09143529 -148.5 109.5 C-151.74012919 113.48385992 -155.0409812 117.40758757 -158.375 121.3125 C-162.24530758 125.84909696 -165.97098179 130.47528427 -169.625 135.1875 C-181.85479626 150.92739813 -181.85479626 150.92739813 -186 153 C-190.43850516 153.51213521 -192.53481348 153.27065397 -196.4375 151 C-199 148 -199 148 -199.875 144.3125 C-199.3905811 138.29669315 -194.82932767 134.30161141 -191 130 C-189.51315302 128.19379504 -188.03403919 126.38119808 -186.5625 124.5625 C-185.43134766 123.18384766 -185.43134766 123.18384766 -184.27734375 121.77734375 C-182.78699798 119.95978656 -181.29988506 118.13957252 -179.81640625 116.31640625 C-175.74138731 111.31161472 -171.61824263 106.35390979 -167.4375 101.4375 C-163.64826774 96.97904617 -159.94652945 92.46615769 -156.30859375 87.8828125 C-153.1510522 83.93989259 -149.95398196 80.03022618 -146.75 76.125 C-146.14696045 75.38668945 -145.5439209 74.64837891 -144.92260742 73.88769531 C-137.0967367 64.36700139 -137.0967367 64.36700139 -133.9921875 63.328125 C-126.3214234 63.04507097 -122.44864859 67.05729735 -117 72 C-114.84634327 73.84880431 -112.67169816 75.67245246 -110.5 77.5 C-109.39449408 78.44006046 -108.28902492 79.38016415 -107.18359375 80.3203125 C-103.56976319 83.37808542 -99.87732028 86.33258131 -96.16796875 89.2734375 C-93.4072922 91.47203035 -90.6994072 93.72681499 -88 96 C-84.7425081 94.61839226 -83.09226686 93.18026874 -81.0390625 90.31640625 C-80.49233887 89.56335205 -79.94561523 88.81029785 -79.38232422 88.03442383 C-78.80240723 87.21868896 -78.22249023 86.4029541 -77.625 85.5625 C-76.36998927 83.82798201 -75.11477522 82.09361111 -73.859375 80.359375 C-72.8993457 79.02422852 -72.8993457 79.02422852 -71.91992188 77.66210938 C-68.9350379 73.52335367 -65.9053201 69.41804042 -62.875 65.3125 C-62.2982251 64.52891113 -61.7214502 63.74532227 -61.12719727 62.93798828 C-57.30347567 57.74738185 -53.4423165 52.5862606 -49.5625 47.4375 C-45.24787952 41.71083476 -41.04346538 35.92282252 -37 30 C-37.53109375 29.7628125 -38.0621875 29.525625 -38.609375 29.28125 C-41.69742595 27.62621616 -44.4528472 25.59451872 -47.25 23.5 C-47.80429688 23.09652344 -48.35859375 22.69304688 -48.9296875 22.27734375 C-50.32569165 21.23549829 -51.66802392 20.12254588 -53 19 C-53 18.34 -53 17.68 -53 17 C-45.93634575 14.57254142 -38.87028584 12.15219025 -31.80249023 9.73681641 C-29.39730444 8.91391702 -26.99267865 8.08937895 -24.58862305 7.26318359 C-21.13735775 6.07741168 -17.68413579 4.89750537 -14.23046875 3.71875 C-12.61316109 3.16096863 -12.61316109 3.16096863 -10.96318054 2.59191895 C-9.96236954 2.25156616 -8.96155853 1.91121338 -7.93041992 1.56054688 C-6.60804573 1.10754211 -6.60804573 1.10754211 -5.25895691 0.64538574 C-3 0 -3 0 0 0 Z " fill="#14AB7E" transform="translate(223,12)"/>
<path d="M0 0 C36.3 0 72.6 0 110 0 C110 7.92 110 15.84 110 24 C96.8 24 83.6 24 70 24 C70 61.95 70 99.9 70 139 C60.76 139 51.52 139 42 139 C42 101.05 42 63.1 42 24 C28.14 24 14.28 24 0 24 C0 16.08 0 8.16 0 0 Z " fill="#1C2933" transform="translate(286,36)"/>
<path d="M0 0 C3.44312714 2.1244827 4.71617547 3.14852641 6 7 C6.10692874 9.87938523 6.15726482 12.73491953 6.16113281 15.61474609 C6.16609772 16.49472763 6.17106262 17.37470917 6.17617798 18.28135681 C6.19079516 21.19539163 6.19760059 24.10937203 6.203125 27.0234375 C6.20887647 29.04741416 6.2146342 31.07139081 6.22039795 33.09536743 C6.23090643 37.3405991 6.23675022 41.58581184 6.24023438 45.83105469 C6.24572118 51.2708125 6.2697539 56.71032027 6.29820633 62.14999962 C6.31682867 66.3312961 6.32203808 70.51253228 6.32357025 74.69386673 C6.32659782 76.69933058 6.33462984 78.70479334 6.34775543 80.71021652 C6.36480863 83.51582636 6.36293752 86.32082422 6.35644531 89.12646484 C6.3656601 89.95469254 6.37487488 90.78292023 6.3843689 91.63624573 C6.35095466 96.24550635 6.00177337 99.26783509 3 103 C-0.60013182 105.40008788 -3.19259644 105.2883441 -7.35043335 105.27415466 C-8.10492598 105.27939134 -8.85941861 105.28462802 -9.63677466 105.29002339 C-12.17245374 105.30506071 -14.70793169 105.30572935 -17.24365234 105.30639648 C-19.05862266 105.31401545 -20.87358975 105.32244249 -22.68855286 105.33161926 C-27.62451011 105.35359666 -32.56040541 105.36236747 -37.49640608 105.36744571 C-40.57881503 105.37108534 -43.66120765 105.37732333 -46.74361038 105.3844471 C-57.49314337 105.40895249 -68.24262801 105.42199593 -78.9921875 105.42553711 C-89.01870892 105.42917362 -99.04492446 105.45907451 -109.07135236 105.50094169 C-117.6744029 105.53560839 -126.27735189 105.55108492 -134.88047183 105.55178314 C-140.02104231 105.55257717 -145.16130133 105.56137352 -150.30179977 105.58978081 C-155.13640237 105.61589955 -159.97043393 105.6182014 -164.80507469 105.60212517 C-166.58002782 105.60030575 -168.35501331 105.60704572 -170.12989616 105.62294388 C-172.55247737 105.64332165 -174.97304493 105.63290371 -177.39559937 105.61473083 C-178.09881423 105.6279308 -178.8020291 105.64113077 -179.52655351 105.65473074 C-183.38606386 105.58855378 -184.90921857 105.07450324 -187.9359684 102.59048557 C-190.51871108 99.34898595 -190.68120247 97.90283652 -190.43359375 93.93359375 C-189.75194607 90.89381354 -188.19767713 89.13303956 -186 87 C-183.09039893 85.54519946 -180.55678263 85.87735141 -177.30563354 85.87974548 C-176.60972079 85.87889106 -175.91380804 85.87803663 -175.19680703 85.87715632 C-172.85367238 85.87550287 -170.51060857 85.88102068 -168.16748047 85.88647461 C-166.49232993 85.88675654 -164.81717927 85.88659864 -163.14202881 85.8860321 C-158.5844306 85.88574434 -154.02685853 85.89163762 -149.46926641 85.89860606 C-144.7099912 85.90484316 -139.95071544 85.90544368 -135.19143677 85.90663147 C-126.1745923 85.90974373 -117.1577599 85.91795571 -108.14092076 85.92798096 C-97.87746791 85.93914535 -87.61401449 85.94465337 -77.35055709 85.94967639 C-56.23369798 85.96013841 -35.11684975 85.97773583 -14 86 C-14.00888245 85.00885696 -14.01776489 84.01771393 -14.0269165 82.99653625 C-14.10802288 73.65340662 -14.16797523 64.31034847 -14.20724869 54.9669466 C-14.22811847 50.16344334 -14.25642499 45.3602244 -14.30175781 40.55688477 C-14.3452373 35.92087703 -14.36914169 31.28514267 -14.37950897 26.64894676 C-14.38689657 24.88069543 -14.40132293 23.11245897 -14.42292023 21.34432411 C-14.45198273 18.86634684 -14.4559549 16.38949739 -14.45410156 13.91137695 C-14.46848267 13.18129425 -14.48286377 12.45121155 -14.49768066 11.69900513 C-14.45850282 6.85397559 -13.44450499 4.39755179 -10 1 C-6.79582279 -0.6020886 -3.47660568 -0.49285215 0 0 Z " fill="#1A2731" transform="translate(214,91)"/>
<path d="M0 0 C0 7.59 0 15.18 0 23 C-2.083125 23.0825 -4.16625 23.165 -6.3125 23.25 C-14.53315564 23.86509456 -22.63491937 24.95366344 -28.5 31.25 C-34.69632827 38.88206287 -34.46558917 47.79061296 -34.51171875 57.125 C-34.52859145 58.48121743 -34.54674512 59.83741947 -34.56611633 61.19360352 C-34.61334209 64.73788644 -34.6433276 68.28210693 -34.66955566 71.82659912 C-34.69950088 75.45353518 -34.74598267 79.0802567 -34.79101562 82.70703125 C-34.87673595 89.80457768 -34.94268785 96.90215898 -35 104 C-43.58 104 -52.16 104 -61 104 C-61 70.01 -61 36.02 -61 1 C-52.42 1 -43.84 1 -35 1 C-34.67 5.29 -34.34 9.58 -34 14 C-33.01 12.783125 -32.02 11.56625 -31 10.3125 C-24.11188699 2.48194899 -10.66310665 -5.33155332 0 0 Z " fill="#1B2731" transform="translate(461,71)"/>
<path d="M0 0 C5.12972311 1.30265839 8.64523428 5.15334422 12.4765625 8.62890625 C14.0771422 10.00292218 15.68924225 11.36246408 17.30322266 12.72070312 C18.97276937 14.12571414 20.63479264 15.53929807 22.296875 16.953125 C25.88556467 19.98979166 29.55799078 22.9162718 33.2421875 25.8359375 C36.38697937 28.35946804 39.43409889 30.98328572 42.4765625 33.62890625 C41.02705845 37.9853827 38.79909138 40.94647914 35.8515625 44.44140625 C35.03429687 45.41722656 34.21703125 46.39304688 33.375 47.3984375 C32.74851562 48.13449219 32.12203125 48.87054688 31.4765625 49.62890625 C27.3884594 47.93969006 24.32032055 45.07407035 21.0390625 42.19140625 C19.79587504 41.11293288 18.5523777 40.03481664 17.30859375 38.95703125 C16.67646973 38.40724609 16.0443457 37.85746094 15.39306641 37.29101562 C12.35386517 34.65523448 9.29301307 32.04539 6.2265625 29.44140625 C5.67814697 28.97226807 5.12973145 28.50312988 4.56469727 28.01977539 C1.69628838 25.56827851 1.69628838 25.56827851 -1.5234375 23.62890625 C-1.86181641 24.43134766 -1.86181641 24.43134766 -2.20703125 25.25 C-3.94991844 28.3996092 -6.23558136 30.9888169 -8.5859375 33.69140625 C-9.58799619 34.85872593 -10.58928779 36.02670451 -11.58984375 37.1953125 C-12.08758301 37.77555176 -12.58532227 38.35579102 -13.09814453 38.95361328 C-15.10869436 41.31681865 -17.06758393 43.72034154 -19.0234375 46.12890625 C-22.26356669 50.11276617 -25.5644187 54.03649382 -28.8984375 57.94140625 C-32.76874508 62.47800321 -36.49441929 67.10419052 -40.1484375 71.81640625 C-52.37823376 87.55630438 -52.37823376 87.55630438 -56.5234375 89.62890625 C-60.96194266 90.14104146 -63.05825098 89.89956022 -66.9609375 87.62890625 C-69.5234375 84.62890625 -69.5234375 84.62890625 -70.3984375 80.94140625 C-69.9140186 74.9255994 -65.35276517 70.93051766 -61.5234375 66.62890625 C-60.03659052 64.82270129 -58.55747669 63.01010433 -57.0859375 61.19140625 C-56.33183594 60.27230469 -55.57773437 59.35320312 -54.80078125 58.40625 C-53.31043548 56.58869281 -51.82332256 54.76847877 -50.33984375 52.9453125 C-46.26482481 47.94052097 -42.14168013 42.98281604 -37.9609375 38.06640625 C-34.17170524 33.60795242 -30.46996695 29.09506394 -26.83203125 24.51171875 C-23.6744897 20.56879884 -20.47741946 16.65913243 -17.2734375 12.75390625 C-16.67039795 12.0155957 -16.0673584 11.27728516 -15.44604492 10.51660156 C-6.53052995 -0.32971731 -6.53052995 -0.32971731 0 0 Z " fill="#1B2730" transform="translate(93.5234375,75.37109375)"/>
<path d="M0 0 C6.73902849 4.0094388 11.12990711 10.52896486 13.375 18 C13.81050375 21.2812409 13.85142807 24.50579388 13.8125 27.8125 C13.80565186 28.6988916 13.79880371 29.5852832 13.79174805 30.49853516 C13.56024173 39.92353029 11.36306713 47.32251363 4.375 54 C-3.42193427 59.14206418 -10.26014235 61.07912929 -19.625 60 C-27.52975416 57.47816856 -32.99405796 52.99963583 -36.83984375 45.69140625 C-40.9912104 36.69431625 -42.40063576 27.36576471 -39.68359375 17.625 C-36.40848035 9.41154948 -32.53578036 3.07277651 -24.4765625 -1.078125 C-16.73529677 -3.58078077 -7.43788815 -3.30822862 0 0 Z " fill="#F8F8F8" transform="translate(636.625,95)"/>
<path d="M0 0 C0.46728864 7.32085543 -1.12994146 13.16819707 -5.1875 19.3125 C-11.7942732 25.62563884 -19.09385224 27.36084606 -28.046875 27.28515625 C-32.8760292 26.81884903 -35.49405936 24.70189436 -38.62109375 21.16796875 C-41.04355112 17.35928931 -40.75393596 13.34746249 -40 9 C-36.84729469 4.67628986 -33.35738815 2.61051282 -28.10424805 1.65527344 C-25.8847576 1.35197306 -23.66603086 1.10247737 -21.4375 0.875 C-20.24954834 0.74762451 -20.24954834 0.74762451 -19.03759766 0.61767578 C-12.68174855 -0.02267634 -6.3873446 -0.22543569 0 0 Z " fill="#F5F6F6" transform="translate(532,130)"/>
<path d="M0 0 C5.18332649 3.23384529 8.41070206 8.22075033 10.75 13.75 C11.375 16.5 11.375 16.5 11.375 20.5 C-4.465 20.5 -20.305 20.5 -36.625 20.5 C-35.50722807 12.67559647 -33.55646337 7.7974557 -27.5625 2.625 C-20.08819385 -2.78194487 -8.65408653 -3.80510419 0 0 Z " fill="#F8F9F9" transform="translate(752.625,92.5)"/>
<path d="M0 0 C8.58 0 17.16 0 26 0 C26 47.52 26 95.04 26 144 C17.42 144 8.84 144 0 144 C0.33 139.38 0.66 134.76 1 130 C1.66 130.33 2.32 130.66 3 131 C3 134.3 3 137.6 3 141 C9.6 141 16.2 141 23 141 C23 95.46 23 49.92 23 3 C16.07 3 9.14 3 2 3 C2 19.17 2 35.34 2 52 C1.67 52 1.34 52 1 52 C0.67 34.84 0.34 17.68 0 0 Z " fill="#263038" transform="translate(650,31)"/>
<path d="M0 0 C36.3 0 72.6 0 110 0 C110 7.92 110 15.84 110 24 C89.705 23.505 89.705 23.505 69 23 C69 22.67 69 22.34 69 22 C82.2 22 95.4 22 109 22 C109 15.4 109 8.8 109 2 C73.69 2 38.38 2 2 2 C2 8.6 2 15.2 2 22 C15.2 22 28.4 22 42 22 C42 22.33 42 22.66 42 23 C28.14 23 14.28 23 0 23 C0 15.41 0 7.82 0 0 Z " fill="#161D24" transform="translate(286,36)"/>
<path d="M0 0 C0.33 0 0.66 0 1 0 C1 37.95 1 75.9 1 115 C-7.58 115 -16.16 115 -25 115 C-25 101.47 -25 87.94 -25 74 C-24.67 74 -24.34 74 -24 74 C-23.67 72.35 -23.34 70.7 -23 69 C-22.67 69 -22.34 69 -22 69 C-22 83.19 -22 97.38 -22 112 C-14.74 112 -7.48 112 0 112 C0 75.04 0 38.08 0 0 Z " fill="#25333D" transform="translate(353,60)"/>
<path d="M0 0 C7.59 0 15.18 0 23 0 C23 2.64 23 5.28 23 8 C22.67 8 22.34 8 22 8 C22 5.69 22 3.38 22 1 C15.07 1 8.14 1 1 1 C1 33.01 1 65.02 1 98 C8.26 98 15.52 98 23 98 C23.66 98.33 24.32 98.66 25 99 C25 99.66 25 100.32 25 101 C16.42 101 7.84 101 -1 101 C-0.67 67.67 -0.34 34.34 0 0 Z " fill="#28343D" transform="translate(401,74)"/>
<path d="M0 0 C8.58 0 17.16 0 26 0 C26.1953125 10.7421875 26.1953125 10.7421875 26 14 C25.34 14.66 24.68 15.32 24 16 C24 11.38 24 6.76 24 2 C16.41 2 8.82 2 1 2 C1 32.36 1 62.72 1 94 C0.67 94 0.34 94 0 94 C0 62.98 0 31.96 0 0 Z " fill="#000005" transform="translate(400,72)"/>
<path d="M0 0 C4.55273627 -0.27382288 9.10060921 -0.47230307 13.65966797 -0.60424805 C15.20641581 -0.65927006 16.75259903 -0.73412755 18.29736328 -0.82983398 C31.08844472 -1.60192315 31.08844472 -1.60192315 35.8125 2.35693359 C38.76926159 6.32546203 41.06762482 10.09701771 42 15 C39.93324292 13.1628826 38.2493412 11.61695183 37.20117188 9.0234375 C36.08670074 6.42063867 35.13606813 4.88359227 33 3 C28.06178847 1.97135073 23.19517787 2.24653749 18.1875 2.5 C16.81325414 2.54015706 15.43889614 2.57665406 14.06445312 2.609375 C10.70678525 2.70362533 7.35481899 2.83509728 4 3 C5.98 5.97 5.98 5.97 8 9 C7.67 9.66 7.34 10.32 7 11 C5.83051998 9.35616456 4.6644855 7.70987731 3.5 6.0625 C2.8503125 5.14597656 2.200625 4.22945312 1.53125 3.28515625 C0 1 0 1 0 0 Z " fill="#0E1720" transform="translate(785,36)"/>
<path d="M0 0 C0.33 0 0.66 0 1 0 C1.33 12.87 1.66 25.74 2 39 C9.92 39 17.84 39 26 39 C26 39.66 26 40.32 26 41 C17.42 41 8.84 41 0 41 C0 27.47 0 13.94 0 0 Z " fill="#212C36" transform="translate(328,134)"/>
<path d="M0 0 C8.25 0 16.5 0 25 0 C25.1953125 10.7421875 25.1953125 10.7421875 25 14 C24.34 14.66 23.68 15.32 23 16 C23 11.38 23 6.76 23 2 C15.41 2 7.82 2 0 2 C0 1.34 0 0.68 0 0 Z " fill="#06111B" transform="translate(401,72)"/>
<path d="M0 0 C1.37562854 1.28965176 2.70766393 2.62689293 4 4 C4 4.66 4 5.32 4 6 C-6.56 6 -17.12 6 -28 6 C-28.66 4.68 -29.32 3.36 -30 2 C-29.01 2.495 -29.01 2.495 -28 3 C-25.82325217 3.15469367 -23.6421652 3.25002106 -21.4609375 3.31640625 C-20.15898438 3.35830078 -18.85703125 3.40019531 -17.515625 3.44335938 C-16.13541955 3.48317299 -14.75521117 3.52288522 -13.375 3.5625 C-11.98696585 3.60569407 -10.59894472 3.64930865 -9.2109375 3.69335938 C-5.80739744 3.79972 -2.40378222 3.90174714 1 4 C0.67 2.68 0.34 1.36 0 0 Z " fill="#141E26" transform="translate(909,169)"/>
<path d="M0 0 C0.33 0 0.66 0 1 0 C1 3.96 1 7.92 1 12 C8.26 12 15.52 12 23 12 C23 12.66 23 13.32 23 14 C15.08 14 7.16 14 -1 14 C-0.67 9.38 -0.34 4.76 0 0 Z " fill="#061019" transform="translate(651,161)"/>
<path d="M0 0 C2.05078125 0.03255208 4.1015625 0.06510417 6.15234375 0.09765625 C6.15234375 0.42765625 6.15234375 0.75765625 6.15234375 1.09765625 C3.51234375 1.42765625 0.87234375 1.75765625 -1.84765625 2.09765625 C-1.97140625 2.71640625 -2.09515625 3.33515625 -2.22265625 3.97265625 C-2.84765625 6.09765625 -2.84765625 6.09765625 -4.84765625 8.09765625 C-5.83765625 8.09765625 -6.82765625 8.09765625 -7.84765625 8.09765625 C-8.13640625 8.73703125 -8.42515625 9.37640625 -8.72265625 10.03515625 C-9.84765625 12.09765625 -9.84765625 12.09765625 -11.84765625 13.09765625 C-10.41267252 9.88877304 -8.63021638 7.51958641 -6.28515625 4.91015625 C-5.66511719 4.21535156 -5.04507813 3.52054687 -4.40625 2.8046875 C-1.93902191 0.1024853 -1.93902191 0.1024853 0 0 Z " fill="#0F151C" transform="translate(88.84765625,75.90234375)"/>
<path d="M0 0 C0.33 0 0.66 0 1 0 C1.99250545 5.70690634 2.10477512 11.21408489 2 17 C1.34 17 0.68 17 0 17 C-1.29060033 14.41879934 -1.13272333 12.50580171 -1.125 9.625 C-1.12757813 8.66851562 -1.13015625 7.71203125 -1.1328125 6.7265625 C-1.01551878 4.31859146 -0.68675951 2.30009932 0 0 Z " fill="#262D33" transform="translate(788,114)"/>
<path d="M0 0 C0.66 0.33 1.32 0.66 2 1 C1.04882866 2.1725131 0.08882991 3.33787015 -0.875 4.5 C-1.67550781 5.47453125 -1.67550781 5.47453125 -2.4921875 6.46875 C-2.98976563 6.9740625 -3.48734375 7.479375 -4 8 C-4.66 8 -5.32 8 -6 8 C-6 8.66 -6 9.32 -6 10 C-7.65 10.66 -9.3 11.32 -11 12 C-10.59007812 11.45730469 -10.18015625 10.91460937 -9.7578125 10.35546875 C-9.21898437 9.64003906 -8.68015625 8.92460937 -8.125 8.1875 C-7.59132812 7.47980469 -7.05765625 6.77210937 -6.5078125 6.04296875 C-5.29185219 4.39543703 -4.13583859 2.70375789 -3 1 C-2.01 0.67 -1.02 0.34 0 0 Z " fill="#161F27" transform="translate(51,121)"/>
</svg>
